<mxfile host="app.diagrams.net" modified="2021-11-08T07:55:47.127Z" agent="5.0 (Windows NT 10.0; Win64; x64) AppleWebKit/537.36 (KHTML, like Gecko) Chrome/95.0.4638.69 Safari/537.36" etag="8EjjPOZlmLCCCEYEgW8P" version="15.2.9" type="github">
  <diagram id="R2lEEEUBdFMjLlhIrx00" name="Page-1">
    <mxGraphModel dx="1888" dy="1656" grid="1" gridSize="10" guides="1" tooltips="1" connect="1" arrows="1" fold="1" page="1" pageScale="1" pageWidth="850" pageHeight="1100" math="0" shadow="0" extFonts="Permanent Marker^https://fonts.googleapis.com/css?family=Permanent+Marker">
      <root>
        <mxCell id="0" />
        <mxCell id="1" parent="0" />
        <mxCell id="KfoyAcjSwaGEX3v1Dtmh-1" value="Account" style="rounded=0;whiteSpace=wrap;html=1;" parent="1" vertex="1">
          <mxGeometry x="-100" y="198.75" width="120" height="60" as="geometry" />
        </mxCell>
        <mxCell id="KfoyAcjSwaGEX3v1Dtmh-4" value="Product" style="rounded=0;whiteSpace=wrap;html=1;" parent="1" vertex="1">
          <mxGeometry x="358.79" y="420" width="120" height="60" as="geometry" />
        </mxCell>
        <mxCell id="KfoyAcjSwaGEX3v1Dtmh-5" value="Inventory" style="rounded=0;whiteSpace=wrap;html=1;" parent="1" vertex="1">
          <mxGeometry x="-101.21" y="420" width="120" height="60" as="geometry" />
        </mxCell>
        <mxCell id="KfoyAcjSwaGEX3v1Dtmh-7" value="Bill" style="rounded=0;whiteSpace=wrap;html=1;" parent="1" vertex="1">
          <mxGeometry x="360" y="198.75" width="120" height="60" as="geometry" />
        </mxCell>
        <mxCell id="KfoyAcjSwaGEX3v1Dtmh-8" value="Gender" style="ellipse;whiteSpace=wrap;html=1;" parent="1" vertex="1">
          <mxGeometry x="-210" y="61.25" width="50" height="40" as="geometry" />
        </mxCell>
        <mxCell id="KfoyAcjSwaGEX3v1Dtmh-9" value="Dob" style="ellipse;whiteSpace=wrap;html=1;" parent="1" vertex="1">
          <mxGeometry x="-240" y="98.75" width="50" height="30" as="geometry" />
        </mxCell>
        <mxCell id="KfoyAcjSwaGEX3v1Dtmh-10" value="Name" style="ellipse;whiteSpace=wrap;html=1;" parent="1" vertex="1">
          <mxGeometry x="-260" y="127.5" width="50" height="36.25" as="geometry" />
        </mxCell>
        <mxCell id="KfoyAcjSwaGEX3v1Dtmh-11" value="Email" style="ellipse;whiteSpace=wrap;html=1;" parent="1" vertex="1">
          <mxGeometry y="21.880000000000003" width="52.5" height="30" as="geometry" />
        </mxCell>
        <mxCell id="KfoyAcjSwaGEX3v1Dtmh-13" value="idNo" style="ellipse;whiteSpace=wrap;html=1;" parent="1" vertex="1">
          <mxGeometry x="-120" y="13.13" width="60" height="35" as="geometry" />
        </mxCell>
        <mxCell id="KfoyAcjSwaGEX3v1Dtmh-14" value="Phone" style="ellipse;whiteSpace=wrap;html=1;" parent="1" vertex="1">
          <mxGeometry x="-170" y="28.75" width="50" height="40" as="geometry" />
        </mxCell>
        <mxCell id="KfoyAcjSwaGEX3v1Dtmh-15" value="Avatar" style="ellipse;whiteSpace=wrap;html=1;" parent="1" vertex="1">
          <mxGeometry x="108.78999999999999" y="63.75" width="60" height="30" as="geometry" />
        </mxCell>
        <mxCell id="KfoyAcjSwaGEX3v1Dtmh-16" value="Password" style="ellipse;whiteSpace=wrap;html=1;" parent="1" vertex="1">
          <mxGeometry x="52.50000000000001" y="36.25" width="70" height="32.5" as="geometry" />
        </mxCell>
        <mxCell id="KfoyAcjSwaGEX3v1Dtmh-17" value="TypeAcc" style="ellipse;whiteSpace=wrap;html=1;" parent="1" vertex="1">
          <mxGeometry x="122.5" y="101.25" width="60" height="30" as="geometry" />
        </mxCell>
        <mxCell id="KfoyAcjSwaGEX3v1Dtmh-18" value="Active" style="ellipse;whiteSpace=wrap;html=1;" parent="1" vertex="1">
          <mxGeometry x="113.78999999999999" y="140" width="60" height="40" as="geometry" />
        </mxCell>
        <mxCell id="KfoyAcjSwaGEX3v1Dtmh-19" value="&lt;u&gt;Id&lt;/u&gt;" style="ellipse;whiteSpace=wrap;html=1;" parent="1" vertex="1">
          <mxGeometry x="-270" y="163.75" width="45" height="30" as="geometry" />
        </mxCell>
        <mxCell id="KfoyAcjSwaGEX3v1Dtmh-29" value="Active" style="ellipse;whiteSpace=wrap;html=1;" parent="1" vertex="1">
          <mxGeometry x="208.79" y="510" width="60" height="40" as="geometry" />
        </mxCell>
        <mxCell id="KfoyAcjSwaGEX3v1Dtmh-30" value="Quantity" style="ellipse;whiteSpace=wrap;html=1;" parent="1" vertex="1">
          <mxGeometry x="268.79" y="540" width="60" height="40" as="geometry" />
        </mxCell>
        <mxCell id="KfoyAcjSwaGEX3v1Dtmh-31" value="SellPrice" style="ellipse;whiteSpace=wrap;html=1;" parent="1" vertex="1">
          <mxGeometry x="328.79" y="550" width="60" height="40" as="geometry" />
        </mxCell>
        <mxCell id="KfoyAcjSwaGEX3v1Dtmh-32" value="Image" style="ellipse;whiteSpace=wrap;html=1;" parent="1" vertex="1">
          <mxGeometry x="398.79" y="550" width="60" height="40" as="geometry" />
        </mxCell>
        <mxCell id="KfoyAcjSwaGEX3v1Dtmh-33" value="Name" style="ellipse;whiteSpace=wrap;html=1;" parent="1" vertex="1">
          <mxGeometry x="468.79" y="540" width="60" height="40" as="geometry" />
        </mxCell>
        <mxCell id="KfoyAcjSwaGEX3v1Dtmh-34" value="Category" style="ellipse;whiteSpace=wrap;html=1;" parent="1" vertex="1">
          <mxGeometry x="528.79" y="520" width="80" height="50" as="geometry" />
        </mxCell>
        <mxCell id="KfoyAcjSwaGEX3v1Dtmh-35" value="&lt;u&gt;Id&lt;/u&gt;" style="ellipse;whiteSpace=wrap;html=1;" parent="1" vertex="1">
          <mxGeometry x="598.79" y="490" width="60" height="40" as="geometry" />
        </mxCell>
        <mxCell id="KfoyAcjSwaGEX3v1Dtmh-36" value="Waiting" style="ellipse;whiteSpace=wrap;html=1;" parent="1" vertex="1">
          <mxGeometry x="123.79" y="490" width="60" height="40" as="geometry" />
        </mxCell>
        <mxCell id="KfoyAcjSwaGEX3v1Dtmh-37" value="Date" style="ellipse;whiteSpace=wrap;html=1;rotation=0;" parent="1" vertex="1">
          <mxGeometry x="88.79" y="525" width="60" height="40" as="geometry" />
        </mxCell>
        <mxCell id="KfoyAcjSwaGEX3v1Dtmh-38" value="OriginalPrice" style="ellipse;whiteSpace=wrap;html=1;" parent="1" vertex="1">
          <mxGeometry x="-180" y="560" width="80" height="50" as="geometry" />
        </mxCell>
        <mxCell id="KfoyAcjSwaGEX3v1Dtmh-39" value="Quantity" style="ellipse;whiteSpace=wrap;html=1;" parent="1" vertex="1">
          <mxGeometry x="-225" y="530" width="60" height="40" as="geometry" />
        </mxCell>
        <mxCell id="KfoyAcjSwaGEX3v1Dtmh-41" value="&lt;u&gt;Id&lt;/u&gt;" style="ellipse;whiteSpace=wrap;html=1;" parent="1" vertex="1">
          <mxGeometry x="-265" y="500" width="60" height="40" as="geometry" />
        </mxCell>
        <mxCell id="KfoyAcjSwaGEX3v1Dtmh-44" value="Price" style="ellipse;whiteSpace=wrap;html=1;" parent="1" vertex="1">
          <mxGeometry x="43.79" y="300" width="55" height="30" as="geometry" />
        </mxCell>
        <mxCell id="KfoyAcjSwaGEX3v1Dtmh-45" value="Quantity" style="ellipse;whiteSpace=wrap;html=1;" parent="1" vertex="1">
          <mxGeometry x="43.79" y="345" width="55" height="35" as="geometry" />
        </mxCell>
        <mxCell id="KfoyAcjSwaGEX3v1Dtmh-47" value="createDate" style="ellipse;whiteSpace=wrap;html=1;" parent="1" vertex="1">
          <mxGeometry x="440" y="58.75" width="75" height="40" as="geometry" />
        </mxCell>
        <mxCell id="KfoyAcjSwaGEX3v1Dtmh-49" value="&lt;u&gt;Id&lt;/u&gt;" style="ellipse;whiteSpace=wrap;html=1;" parent="1" vertex="1">
          <mxGeometry x="360" y="58.75" width="55" height="30" as="geometry" />
        </mxCell>
        <mxCell id="KfoyAcjSwaGEX3v1Dtmh-51" value="" style="endArrow=none;html=1;entryX=0.5;entryY=1;entryDx=0;entryDy=0;" parent="1" target="KfoyAcjSwaGEX3v1Dtmh-11" edge="1">
          <mxGeometry width="50" height="50" relative="1" as="geometry">
            <mxPoint x="-40" y="198.75" as="sourcePoint" />
            <mxPoint x="240" y="195" as="targetPoint" />
          </mxGeometry>
        </mxCell>
        <mxCell id="KfoyAcjSwaGEX3v1Dtmh-53" value="" style="endArrow=none;html=1;entryX=0.5;entryY=1;entryDx=0;entryDy=0;exitX=0.5;exitY=0;exitDx=0;exitDy=0;" parent="1" source="KfoyAcjSwaGEX3v1Dtmh-1" target="KfoyAcjSwaGEX3v1Dtmh-16" edge="1">
          <mxGeometry width="50" height="50" relative="1" as="geometry">
            <mxPoint x="-40" y="175" as="sourcePoint" />
            <mxPoint x="240" y="195" as="targetPoint" />
          </mxGeometry>
        </mxCell>
        <mxCell id="KfoyAcjSwaGEX3v1Dtmh-56" value="" style="endArrow=none;html=1;exitX=0.5;exitY=0;exitDx=0;exitDy=0;" parent="1" source="KfoyAcjSwaGEX3v1Dtmh-1" target="KfoyAcjSwaGEX3v1Dtmh-13" edge="1">
          <mxGeometry width="50" height="50" relative="1" as="geometry">
            <mxPoint x="-80" y="145" as="sourcePoint" />
            <mxPoint x="-30" y="95" as="targetPoint" />
          </mxGeometry>
        </mxCell>
        <mxCell id="KfoyAcjSwaGEX3v1Dtmh-58" value="" style="endArrow=none;html=1;entryX=0;entryY=0.5;entryDx=0;entryDy=0;" parent="1" target="KfoyAcjSwaGEX3v1Dtmh-18" edge="1">
          <mxGeometry width="50" height="50" relative="1" as="geometry">
            <mxPoint x="-40" y="197.75" as="sourcePoint" />
            <mxPoint x="140" y="235" as="targetPoint" />
          </mxGeometry>
        </mxCell>
        <mxCell id="KfoyAcjSwaGEX3v1Dtmh-59" value="" style="endArrow=none;html=1;entryX=0;entryY=1;entryDx=0;entryDy=0;exitX=0.5;exitY=0;exitDx=0;exitDy=0;" parent="1" source="KfoyAcjSwaGEX3v1Dtmh-1" target="KfoyAcjSwaGEX3v1Dtmh-15" edge="1">
          <mxGeometry width="50" height="50" relative="1" as="geometry">
            <mxPoint x="190" y="245" as="sourcePoint" />
            <mxPoint x="240" y="195" as="targetPoint" />
          </mxGeometry>
        </mxCell>
        <mxCell id="KfoyAcjSwaGEX3v1Dtmh-60" value="" style="endArrow=none;html=1;entryX=1;entryY=1;entryDx=0;entryDy=0;exitX=0.5;exitY=0;exitDx=0;exitDy=0;" parent="1" source="KfoyAcjSwaGEX3v1Dtmh-1" target="KfoyAcjSwaGEX3v1Dtmh-9" edge="1">
          <mxGeometry width="50" height="50" relative="1" as="geometry">
            <mxPoint x="190" y="245" as="sourcePoint" />
            <mxPoint x="240" y="195" as="targetPoint" />
          </mxGeometry>
        </mxCell>
        <mxCell id="KfoyAcjSwaGEX3v1Dtmh-61" value="" style="endArrow=none;html=1;entryX=0;entryY=1;entryDx=0;entryDy=0;exitX=0.5;exitY=0;exitDx=0;exitDy=0;" parent="1" source="KfoyAcjSwaGEX3v1Dtmh-1" target="KfoyAcjSwaGEX3v1Dtmh-17" edge="1">
          <mxGeometry width="50" height="50" relative="1" as="geometry">
            <mxPoint x="190" y="245" as="sourcePoint" />
            <mxPoint x="-190" y="75" as="targetPoint" />
          </mxGeometry>
        </mxCell>
        <mxCell id="KfoyAcjSwaGEX3v1Dtmh-62" value="" style="endArrow=none;html=1;entryX=0.5;entryY=1;entryDx=0;entryDy=0;exitX=0.5;exitY=0;exitDx=0;exitDy=0;" parent="1" source="KfoyAcjSwaGEX3v1Dtmh-1" target="KfoyAcjSwaGEX3v1Dtmh-8" edge="1">
          <mxGeometry width="50" height="50" relative="1" as="geometry">
            <mxPoint x="190" y="245" as="sourcePoint" />
            <mxPoint x="240" y="195" as="targetPoint" />
          </mxGeometry>
        </mxCell>
        <mxCell id="KfoyAcjSwaGEX3v1Dtmh-63" value="" style="endArrow=none;html=1;entryX=0.5;entryY=1;entryDx=0;entryDy=0;" parent="1" target="KfoyAcjSwaGEX3v1Dtmh-14" edge="1">
          <mxGeometry width="50" height="50" relative="1" as="geometry">
            <mxPoint x="-40" y="195" as="sourcePoint" />
            <mxPoint x="240" y="195" as="targetPoint" />
          </mxGeometry>
        </mxCell>
        <mxCell id="KfoyAcjSwaGEX3v1Dtmh-64" value="" style="endArrow=none;html=1;exitX=0.5;exitY=0;exitDx=0;exitDy=0;" parent="1" source="KfoyAcjSwaGEX3v1Dtmh-1" target="KfoyAcjSwaGEX3v1Dtmh-10" edge="1">
          <mxGeometry width="50" height="50" relative="1" as="geometry">
            <mxPoint x="190" y="245" as="sourcePoint" />
            <mxPoint x="240" y="195" as="targetPoint" />
          </mxGeometry>
        </mxCell>
        <mxCell id="KfoyAcjSwaGEX3v1Dtmh-65" value="" style="endArrow=none;html=1;exitX=1;exitY=0.5;exitDx=0;exitDy=0;entryX=0.45;entryY=0;entryDx=0;entryDy=0;entryPerimeter=0;" parent="1" source="KfoyAcjSwaGEX3v1Dtmh-19" target="KfoyAcjSwaGEX3v1Dtmh-1" edge="1">
          <mxGeometry width="50" height="50" relative="1" as="geometry">
            <mxPoint x="190" y="245" as="sourcePoint" />
            <mxPoint x="240" y="195" as="targetPoint" />
          </mxGeometry>
        </mxCell>
        <mxCell id="KfoyAcjSwaGEX3v1Dtmh-81" value="&lt;span style=&quot;color: rgb(0 , 0 , 0) ; font-family: &amp;#34;helvetica&amp;#34; ; font-size: 12px ; font-style: normal ; font-weight: 400 ; letter-spacing: normal ; text-align: center ; text-indent: 0px ; text-transform: none ; word-spacing: 0px ; background-color: rgb(248 , 249 , 250) ; display: inline ; float: none&quot;&gt;Bill detail&lt;/span&gt;" style="rhombus;whiteSpace=wrap;html=1;" parent="1" vertex="1">
          <mxGeometry x="125" y="310" width="130" height="60" as="geometry" />
        </mxCell>
        <mxCell id="KfoyAcjSwaGEX3v1Dtmh-83" value="" style="endArrow=none;html=1;exitX=0.5;exitY=0;exitDx=0;exitDy=0;" parent="1" source="KfoyAcjSwaGEX3v1Dtmh-33" edge="1">
          <mxGeometry width="50" height="50" relative="1" as="geometry">
            <mxPoint x="308.79" y="430" as="sourcePoint" />
            <mxPoint x="418.79" y="480" as="targetPoint" />
          </mxGeometry>
        </mxCell>
        <mxCell id="KfoyAcjSwaGEX3v1Dtmh-84" value="" style="endArrow=none;html=1;exitX=0.5;exitY=0;exitDx=0;exitDy=0;" parent="1" source="KfoyAcjSwaGEX3v1Dtmh-32" edge="1">
          <mxGeometry width="50" height="50" relative="1" as="geometry">
            <mxPoint x="308.79" y="430" as="sourcePoint" />
            <mxPoint x="418.79" y="480" as="targetPoint" />
          </mxGeometry>
        </mxCell>
        <mxCell id="KfoyAcjSwaGEX3v1Dtmh-85" value="" style="endArrow=none;html=1;exitX=0.5;exitY=0;exitDx=0;exitDy=0;" parent="1" source="KfoyAcjSwaGEX3v1Dtmh-31" edge="1">
          <mxGeometry width="50" height="50" relative="1" as="geometry">
            <mxPoint x="308.79" y="430" as="sourcePoint" />
            <mxPoint x="418.79" y="480" as="targetPoint" />
          </mxGeometry>
        </mxCell>
        <mxCell id="KfoyAcjSwaGEX3v1Dtmh-86" value="" style="endArrow=none;html=1;exitX=0.5;exitY=0;exitDx=0;exitDy=0;" parent="1" source="KfoyAcjSwaGEX3v1Dtmh-30" edge="1">
          <mxGeometry width="50" height="50" relative="1" as="geometry">
            <mxPoint x="308.79" y="430" as="sourcePoint" />
            <mxPoint x="418.79" y="480" as="targetPoint" />
          </mxGeometry>
        </mxCell>
        <mxCell id="KfoyAcjSwaGEX3v1Dtmh-87" value="" style="endArrow=none;html=1;exitX=0.5;exitY=0;exitDx=0;exitDy=0;" parent="1" source="KfoyAcjSwaGEX3v1Dtmh-29" edge="1">
          <mxGeometry width="50" height="50" relative="1" as="geometry">
            <mxPoint x="308.79" y="430" as="sourcePoint" />
            <mxPoint x="418.79" y="480" as="targetPoint" />
          </mxGeometry>
        </mxCell>
        <mxCell id="KfoyAcjSwaGEX3v1Dtmh-88" value="" style="endArrow=none;html=1;exitX=0;exitY=0.5;exitDx=0;exitDy=0;" parent="1" source="KfoyAcjSwaGEX3v1Dtmh-35" edge="1">
          <mxGeometry width="50" height="50" relative="1" as="geometry">
            <mxPoint x="308.79" y="430" as="sourcePoint" />
            <mxPoint x="418.79" y="480" as="targetPoint" />
          </mxGeometry>
        </mxCell>
        <mxCell id="KfoyAcjSwaGEX3v1Dtmh-89" value="" style="endArrow=none;html=1;entryX=0.5;entryY=1;entryDx=0;entryDy=0;exitX=0.5;exitY=0;exitDx=0;exitDy=0;" parent="1" source="KfoyAcjSwaGEX3v1Dtmh-34" target="KfoyAcjSwaGEX3v1Dtmh-4" edge="1">
          <mxGeometry width="50" height="50" relative="1" as="geometry">
            <mxPoint x="578.79" y="510" as="sourcePoint" />
            <mxPoint x="358.79" y="380" as="targetPoint" />
          </mxGeometry>
        </mxCell>
        <mxCell id="KfoyAcjSwaGEX3v1Dtmh-91" value="" style="endArrow=none;html=1;exitX=1;exitY=0.5;exitDx=0;exitDy=0;entryX=0;entryY=0.5;entryDx=0;entryDy=0;" parent="1" source="KfoyAcjSwaGEX3v1Dtmh-45" target="KfoyAcjSwaGEX3v1Dtmh-81" edge="1">
          <mxGeometry width="50" height="50" relative="1" as="geometry">
            <mxPoint x="540" y="360" as="sourcePoint" />
            <mxPoint x="150" y="340" as="targetPoint" />
          </mxGeometry>
        </mxCell>
        <mxCell id="KfoyAcjSwaGEX3v1Dtmh-92" value="" style="endArrow=none;html=1;entryX=0;entryY=0.5;entryDx=0;entryDy=0;exitX=1;exitY=0.5;exitDx=0;exitDy=0;" parent="1" source="KfoyAcjSwaGEX3v1Dtmh-44" target="KfoyAcjSwaGEX3v1Dtmh-81" edge="1">
          <mxGeometry width="50" height="50" relative="1" as="geometry">
            <mxPoint x="320" y="370" as="sourcePoint" />
            <mxPoint x="370" y="320" as="targetPoint" />
          </mxGeometry>
        </mxCell>
        <mxCell id="KfoyAcjSwaGEX3v1Dtmh-97" value="" style="endArrow=none;html=1;entryX=0.5;entryY=1;entryDx=0;entryDy=0;exitX=0.5;exitY=0;exitDx=0;exitDy=0;" parent="1" source="KfoyAcjSwaGEX3v1Dtmh-7" target="KfoyAcjSwaGEX3v1Dtmh-47" edge="1">
          <mxGeometry width="50" height="50" relative="1" as="geometry">
            <mxPoint x="320" y="388.75" as="sourcePoint" />
            <mxPoint x="370" y="338.75" as="targetPoint" />
          </mxGeometry>
        </mxCell>
        <mxCell id="KfoyAcjSwaGEX3v1Dtmh-99" value="" style="endArrow=none;html=1;entryX=0.5;entryY=1;entryDx=0;entryDy=0;" parent="1" target="KfoyAcjSwaGEX3v1Dtmh-49" edge="1">
          <mxGeometry width="50" height="50" relative="1" as="geometry">
            <mxPoint x="420" y="198.75" as="sourcePoint" />
            <mxPoint x="370" y="338.75" as="targetPoint" />
          </mxGeometry>
        </mxCell>
        <mxCell id="KfoyAcjSwaGEX3v1Dtmh-104" value="Inventory manage" style="shape=rhombus;perimeter=rhombusPerimeter;whiteSpace=wrap;html=1;align=center;" parent="1" vertex="1">
          <mxGeometry x="123.79" y="420" width="130" height="60" as="geometry" />
        </mxCell>
        <mxCell id="KfoyAcjSwaGEX3v1Dtmh-105" value="Create" style="shape=rhombus;perimeter=rhombusPerimeter;whiteSpace=wrap;html=1;align=center;" parent="1" vertex="1">
          <mxGeometry x="130" y="198.75" width="120" height="60" as="geometry" />
        </mxCell>
        <mxCell id="KfoyAcjSwaGEX3v1Dtmh-106" value="" style="endArrow=none;html=1;rounded=0;exitX=0;exitY=0.5;exitDx=0;exitDy=0;entryX=1;entryY=0.5;entryDx=0;entryDy=0;" parent="1" source="KfoyAcjSwaGEX3v1Dtmh-4" target="KfoyAcjSwaGEX3v1Dtmh-104" edge="1">
          <mxGeometry relative="1" as="geometry">
            <mxPoint x="268.79" y="410" as="sourcePoint" />
            <mxPoint x="268.79" y="450" as="targetPoint" />
          </mxGeometry>
        </mxCell>
        <mxCell id="KfoyAcjSwaGEX3v1Dtmh-107" value="1" style="resizable=0;html=1;align=right;verticalAlign=bottom;" parent="KfoyAcjSwaGEX3v1Dtmh-106" connectable="0" vertex="1">
          <mxGeometry x="1" relative="1" as="geometry" />
        </mxCell>
        <mxCell id="KfoyAcjSwaGEX3v1Dtmh-108" value="" style="endArrow=none;html=1;rounded=0;entryX=0;entryY=0.5;entryDx=0;entryDy=0;exitX=1;exitY=0.5;exitDx=0;exitDy=0;" parent="1" source="KfoyAcjSwaGEX3v1Dtmh-5" target="KfoyAcjSwaGEX3v1Dtmh-104" edge="1">
          <mxGeometry relative="1" as="geometry">
            <mxPoint x="38.79" y="390" as="sourcePoint" />
            <mxPoint x="198.79" y="390" as="targetPoint" />
          </mxGeometry>
        </mxCell>
        <mxCell id="KfoyAcjSwaGEX3v1Dtmh-109" value="n" style="resizable=0;html=1;align=right;verticalAlign=bottom;" parent="KfoyAcjSwaGEX3v1Dtmh-108" connectable="0" vertex="1">
          <mxGeometry x="1" relative="1" as="geometry">
            <mxPoint as="offset" />
          </mxGeometry>
        </mxCell>
        <mxCell id="KfoyAcjSwaGEX3v1Dtmh-110" value="" style="endArrow=none;html=1;rounded=0;exitX=1;exitY=0.5;exitDx=0;exitDy=0;entryX=0;entryY=0.5;entryDx=0;entryDy=0;" parent="1" source="KfoyAcjSwaGEX3v1Dtmh-1" target="KfoyAcjSwaGEX3v1Dtmh-105" edge="1">
          <mxGeometry relative="1" as="geometry">
            <mxPoint x="40" y="278.75" as="sourcePoint" />
            <mxPoint x="200" y="278.75" as="targetPoint" />
          </mxGeometry>
        </mxCell>
        <mxCell id="KfoyAcjSwaGEX3v1Dtmh-111" value="1" style="resizable=0;html=1;align=right;verticalAlign=bottom;" parent="KfoyAcjSwaGEX3v1Dtmh-110" connectable="0" vertex="1">
          <mxGeometry x="1" relative="1" as="geometry" />
        </mxCell>
        <mxCell id="KfoyAcjSwaGEX3v1Dtmh-112" value="" style="endArrow=none;html=1;rounded=0;exitX=0;exitY=0.5;exitDx=0;exitDy=0;entryX=1;entryY=0.5;entryDx=0;entryDy=0;" parent="1" source="KfoyAcjSwaGEX3v1Dtmh-7" target="KfoyAcjSwaGEX3v1Dtmh-105" edge="1">
          <mxGeometry relative="1" as="geometry">
            <mxPoint x="40" y="368.75" as="sourcePoint" />
            <mxPoint x="270" y="228.75" as="targetPoint" />
          </mxGeometry>
        </mxCell>
        <mxCell id="KfoyAcjSwaGEX3v1Dtmh-113" value="n" style="resizable=0;html=1;align=right;verticalAlign=bottom;" parent="KfoyAcjSwaGEX3v1Dtmh-112" connectable="0" vertex="1">
          <mxGeometry x="1" relative="1" as="geometry">
            <mxPoint x="4" as="offset" />
          </mxGeometry>
        </mxCell>
        <mxCell id="KfoyAcjSwaGEX3v1Dtmh-121" value="" style="endArrow=none;html=1;entryX=1;entryY=0.5;entryDx=0;entryDy=0;exitX=0.5;exitY=0;exitDx=0;exitDy=0;" parent="1" source="KfoyAcjSwaGEX3v1Dtmh-4" target="KfoyAcjSwaGEX3v1Dtmh-81" edge="1">
          <mxGeometry width="50" height="50" relative="1" as="geometry">
            <mxPoint x="420" y="410" as="sourcePoint" />
            <mxPoint x="150" y="320" as="targetPoint" />
            <Array as="points">
              <mxPoint x="419" y="340" />
            </Array>
          </mxGeometry>
        </mxCell>
        <mxCell id="KfoyAcjSwaGEX3v1Dtmh-122" value="" style="endArrow=none;html=1;" parent="1" source="KfoyAcjSwaGEX3v1Dtmh-36" edge="1">
          <mxGeometry width="50" height="50" relative="1" as="geometry">
            <mxPoint x="98.79" y="310" as="sourcePoint" />
            <mxPoint x="-41.21" y="480" as="targetPoint" />
          </mxGeometry>
        </mxCell>
        <mxCell id="KfoyAcjSwaGEX3v1Dtmh-123" value="" style="endArrow=none;html=1;exitX=0.5;exitY=1;exitDx=0;exitDy=0;entryX=0.5;entryY=0;entryDx=0;entryDy=0;" parent="1" source="KfoyAcjSwaGEX3v1Dtmh-5" target="KfoyAcjSwaGEX3v1Dtmh-38" edge="1">
          <mxGeometry width="50" height="50" relative="1" as="geometry">
            <mxPoint x="98.79" y="310" as="sourcePoint" />
            <mxPoint x="-82.18926909092484" y="590.6440265454967" as="targetPoint" />
          </mxGeometry>
        </mxCell>
        <mxCell id="KfoyAcjSwaGEX3v1Dtmh-124" value="" style="endArrow=none;html=1;exitX=0.5;exitY=1;exitDx=0;exitDy=0;entryX=0;entryY=0;entryDx=0;entryDy=0;" parent="1" source="KfoyAcjSwaGEX3v1Dtmh-5" target="KfoyAcjSwaGEX3v1Dtmh-37" edge="1">
          <mxGeometry width="50" height="50" relative="1" as="geometry">
            <mxPoint x="98.79" y="310" as="sourcePoint" />
            <mxPoint x="148.79" y="260" as="targetPoint" />
          </mxGeometry>
        </mxCell>
        <mxCell id="KfoyAcjSwaGEX3v1Dtmh-125" value="" style="endArrow=none;html=1;exitX=0.5;exitY=0;exitDx=0;exitDy=0;" parent="1" source="KfoyAcjSwaGEX3v1Dtmh-39" edge="1">
          <mxGeometry width="50" height="50" relative="1" as="geometry">
            <mxPoint x="98.79" y="310" as="sourcePoint" />
            <mxPoint x="-41.21" y="480" as="targetPoint" />
          </mxGeometry>
        </mxCell>
        <mxCell id="KfoyAcjSwaGEX3v1Dtmh-127" value="" style="endArrow=none;html=1;exitX=0.5;exitY=0;exitDx=0;exitDy=0;entryX=0.5;entryY=1;entryDx=0;entryDy=0;" parent="1" source="KfoyAcjSwaGEX3v1Dtmh-41" target="KfoyAcjSwaGEX3v1Dtmh-5" edge="1">
          <mxGeometry width="50" height="50" relative="1" as="geometry">
            <mxPoint x="-219.99679656440364" y="545.8578643762689" as="sourcePoint" />
            <mxPoint x="148.79" y="260" as="targetPoint" />
          </mxGeometry>
        </mxCell>
        <mxCell id="KfoyAcjSwaGEX3v1Dtmh-129" value="" style="endArrow=none;html=1;rounded=0;exitX=0.5;exitY=1;exitDx=0;exitDy=0;entryX=0.5;entryY=0;entryDx=0;entryDy=0;" parent="1" source="KfoyAcjSwaGEX3v1Dtmh-7" target="KfoyAcjSwaGEX3v1Dtmh-81" edge="1">
          <mxGeometry relative="1" as="geometry">
            <mxPoint x="340" y="340" as="sourcePoint" />
            <mxPoint x="220" y="310" as="targetPoint" />
            <Array as="points">
              <mxPoint x="420" y="280" />
              <mxPoint x="350" y="280" />
              <mxPoint x="190" y="280" />
            </Array>
          </mxGeometry>
        </mxCell>
        <mxCell id="2ZbZevwpe1_otpKqO17O-4" value="" style="group" parent="1" vertex="1" connectable="0">
          <mxGeometry x="-50" y="21.880000000000003" width="60" height="41.25" as="geometry" />
        </mxCell>
        <mxCell id="KfoyAcjSwaGEX3v1Dtmh-12" value="Address" style="ellipse;whiteSpace=wrap;html=1;" parent="2ZbZevwpe1_otpKqO17O-4" vertex="1">
          <mxGeometry x="-10" y="-10" width="60" height="30" as="geometry" />
        </mxCell>
        <mxCell id="l8LSCOQpDBevpGoVwjqL-11" style="edgeStyle=none;shape=link;rounded=0;orthogonalLoop=1;jettySize=auto;html=1;exitX=1;exitY=0;exitDx=0;exitDy=0;strokeColor=default;strokeWidth=3;" parent="2ZbZevwpe1_otpKqO17O-4" source="KfoyAcjSwaGEX3v1Dtmh-12" target="KfoyAcjSwaGEX3v1Dtmh-12" edge="1">
          <mxGeometry relative="1" as="geometry" />
        </mxCell>
        <mxCell id="KfoyAcjSwaGEX3v1Dtmh-57" value="" style="endArrow=none;html=1;exitX=0.5;exitY=0;exitDx=0;exitDy=0;" parent="1" source="KfoyAcjSwaGEX3v1Dtmh-1" target="KfoyAcjSwaGEX3v1Dtmh-12" edge="1">
          <mxGeometry width="50" height="50" relative="1" as="geometry">
            <mxPoint x="190" y="230" as="sourcePoint" />
            <mxPoint x="30" y="40" as="targetPoint" />
          </mxGeometry>
        </mxCell>
        <mxCell id="2ZbZevwpe1_otpKqO17O-9" value="Profit" style="ellipse;whiteSpace=wrap;html=1;" parent="1" vertex="1">
          <mxGeometry x="-100" y="565" width="80" height="50" as="geometry" />
        </mxCell>
        <mxCell id="2ZbZevwpe1_otpKqO17O-10" value="" style="endArrow=none;html=1;entryX=0.5;entryY=0;entryDx=0;entryDy=0;" parent="1" target="2ZbZevwpe1_otpKqO17O-9" edge="1">
          <mxGeometry width="50" height="50" relative="1" as="geometry">
            <mxPoint x="-41.21" y="480" as="sourcePoint" />
            <mxPoint x="-8.493570407292246" y="590.4179498753883" as="targetPoint" />
          </mxGeometry>
        </mxCell>
        <mxCell id="2ZbZevwpe1_otpKqO17O-11" style="edgeStyle=none;rounded=0;orthogonalLoop=1;jettySize=auto;html=1;exitX=1;exitY=0.5;exitDx=0;exitDy=0;" parent="1" edge="1">
          <mxGeometry relative="1" as="geometry">
            <mxPoint x="38.79" y="615" as="sourcePoint" />
            <mxPoint x="38.79" y="615" as="targetPoint" />
          </mxGeometry>
        </mxCell>
        <mxCell id="2ZbZevwpe1_otpKqO17O-12" value="Vat" style="ellipse;whiteSpace=wrap;html=1;" parent="1" vertex="1">
          <mxGeometry x="-16.21" y="570" width="60" height="40" as="geometry" />
        </mxCell>
        <mxCell id="2ZbZevwpe1_otpKqO17O-13" value="" style="endArrow=none;html=1;exitX=0.5;exitY=1;exitDx=0;exitDy=0;entryX=0;entryY=0;entryDx=0;entryDy=0;" parent="1" source="KfoyAcjSwaGEX3v1Dtmh-5" target="2ZbZevwpe1_otpKqO17O-12" edge="1">
          <mxGeometry width="50" height="50" relative="1" as="geometry">
            <mxPoint x="-41.21" y="530" as="sourcePoint" />
            <mxPoint x="148.79" y="310" as="targetPoint" />
          </mxGeometry>
        </mxCell>
        <mxCell id="l8LSCOQpDBevpGoVwjqL-2" value="" style="endArrow=none;html=1;rounded=0;exitX=0.5;exitY=1;exitDx=0;exitDy=0;entryX=0.5;entryY=0;entryDx=0;entryDy=0;" parent="1" source="KfoyAcjSwaGEX3v1Dtmh-81" target="KfoyAcjSwaGEX3v1Dtmh-5" edge="1">
          <mxGeometry relative="1" as="geometry">
            <mxPoint x="208.79" y="370" as="sourcePoint" />
            <mxPoint x="98.78999999999999" y="370" as="targetPoint" />
            <Array as="points">
              <mxPoint x="190" y="400" />
              <mxPoint x="-41" y="400" />
            </Array>
          </mxGeometry>
        </mxCell>
        <mxCell id="l8LSCOQpDBevpGoVwjqL-3" value="n" style="resizable=0;html=1;align=right;verticalAlign=bottom;" parent="l8LSCOQpDBevpGoVwjqL-2" connectable="0" vertex="1">
          <mxGeometry x="1" relative="1" as="geometry">
            <mxPoint x="220" y="-105" as="offset" />
          </mxGeometry>
        </mxCell>
        <mxCell id="l8LSCOQpDBevpGoVwjqL-5" style="edgeStyle=none;shape=link;rounded=0;orthogonalLoop=1;jettySize=auto;html=1;exitX=0.5;exitY=0;exitDx=0;exitDy=0;strokeColor=default;strokeWidth=3;" parent="1" source="KfoyAcjSwaGEX3v1Dtmh-44" target="KfoyAcjSwaGEX3v1Dtmh-44" edge="1">
          <mxGeometry relative="1" as="geometry" />
        </mxCell>
        <mxCell id="l8LSCOQpDBevpGoVwjqL-6" value="n" style="resizable=0;html=1;align=right;verticalAlign=bottom;" parent="1" connectable="0" vertex="1">
          <mxGeometry x="268.79001157529274" y="339.9988975911547" as="geometry" />
        </mxCell>
        <mxCell id="l8LSCOQpDBevpGoVwjqL-8" value="n" style="resizable=0;html=1;align=right;verticalAlign=bottom;" parent="1" connectable="0" vertex="1">
          <mxGeometry x="188.79001157529274" y="379.9988975911547" as="geometry">
            <mxPoint x="-6" as="offset" />
          </mxGeometry>
        </mxCell>
        <mxCell id="l8LSCOQpDBevpGoVwjqL-9" value="&lt;div style=&quot;text-align: left&quot;&gt;IsSelling&lt;/div&gt;" style="ellipse;whiteSpace=wrap;html=1;" parent="1" vertex="1">
          <mxGeometry x="43.79000000000001" y="560" width="60" height="40" as="geometry" />
        </mxCell>
        <mxCell id="l8LSCOQpDBevpGoVwjqL-10" value="" style="endArrow=none;html=1;entryX=0;entryY=0;entryDx=0;entryDy=0;exitX=0.5;exitY=1;exitDx=0;exitDy=0;" parent="1" source="KfoyAcjSwaGEX3v1Dtmh-5" target="l8LSCOQpDBevpGoVwjqL-9" edge="1">
          <mxGeometry width="50" height="50" relative="1" as="geometry">
            <mxPoint x="9.39" y="230.88" as="sourcePoint" />
            <mxPoint x="189.39" y="268.13" as="targetPoint" />
          </mxGeometry>
        </mxCell>
      </root>
    </mxGraphModel>
  </diagram>
</mxfile>
